# xmcd
#
# Track frame offsets:
#	150
#	21588
#	41656
#	62855
#	84855
#	103887
#	128526
#	148543
#	171086
#	195421
#	215882
#
# Disc length: 3164 seconds
#
# Revision: 4294901758
# Processed by: cddbd v1.5.2PL0 Copyright (c) Steve Scherf et al.
# Submitted via: EZCDAudioConverter 8.0.2.1
#
DISCID=9d0c5a0b
DTITLE=Various Artist - Khung Trời Ngày Xưa
DYEAR=2001
DGENRE=
TTITLE0=Cẩm Ly - Khung Trời Ngày Xưa
TTITLE1=Đan Trường - Khúc ca xuân
TTITLE2=Lê Uyên Nhy - Chút tình mong manh
TTITLE3=Minh Thuận - Tương tư
TTITLE4=Cẩm Ly - Phố xuân
TTITLE5=Đan Trường - Bài ca mùa xuân
TTITLE6=Cẩm Ly - Xa mãi tình đầu
TTITLE7=Thanh Thanh - Nàng tiên xấu xa
TTITLE8=Minh Thuận - Tình phiêu lãng
TTITLE9=Lê Uyên Nhy - Bước tình xa
TTITLE10=Đan Trường, Cẩm Ly - Khung Trời Ngày Xưa
EXTD=
EXTT0=
EXTT1=
EXTT2=
EXTT3=
EXTT4=
EXTT5=
EXTT6=
EXTT7=
EXTT8=
EXTT9=
EXTT10=
PLAYORDER=
